<svg width="25" height="19" viewBox="0 0 25 19" fill="none" xmlns="http://www.w3.org/2000/svg">
<path d="M20.4688 2.23438C23.0469 6.0625 24.3359 10.3594 23.8672 15.3203C23.8672 15.3203 23.8672 15.3594 23.8281 15.3594C22.1094 16.6484 20.1562 17.625 18.0859 18.25C18.0469 18.2891 18.0469 18.25 18.0078 18.25C17.5781 17.625 17.1875 17 16.8359 16.3359C16.8359 16.2969 16.8359 16.2578 16.875 16.2188C17.5 15.9844 18.0859 15.7109 18.6719 15.3594C18.7109 15.3594 18.7109 15.2812 18.6719 15.2422C18.5547 15.1641 18.4375 15.0859 18.3203 14.9688C18.2812 14.9688 18.2812 14.9688 18.2422 14.9688C14.5312 16.6875 10.4688 16.6875 6.71875 14.9688C6.67969 14.9688 6.64062 14.9688 6.64062 14.9688C6.52344 15.0859 6.40625 15.1641 6.28906 15.2422C6.21094 15.2812 6.25 15.3594 6.28906 15.3594C6.83594 15.7109 7.46094 15.9844 8.08594 16.2188C8.125 16.2578 8.125 16.2969 8.125 16.3359C7.77344 17 7.38281 17.625 6.95312 18.25C6.91406 18.25 6.875 18.2891 6.875 18.25C4.80469 17.625 2.85156 16.6484 1.13281 15.3594C1.09375 15.3594 1.09375 15.3203 1.09375 15.3203C0.703125 11.0234 1.52344 6.6875 4.49219 2.23438C4.49219 2.23438 4.49219 2.23438 4.53125 2.23438C6.01562 1.53125 7.57812 1.0625 9.17969 0.789062C9.21875 0.75 9.25781 0.789062 9.25781 0.789062C9.49219 1.17969 9.6875 1.60938 9.84375 2C11.6016 1.72656 13.3594 1.72656 15.1172 2C15.2734 1.60938 15.4688 1.17969 15.7031 0.789062C15.7031 0.789062 15.7422 0.75 15.7812 0.789062C17.3828 1.0625 18.9453 1.53125 20.4297 2.23438C20.4688 2.23438 20.4688 2.23438 20.4688 2.23438ZM8.67188 12.7031C9.80469 12.7031 10.7422 11.6484 10.7422 10.3984C10.7422 9.10938 9.84375 8.09375 8.67188 8.09375C7.53906 8.09375 6.60156 9.10938 6.60156 10.3984C6.60156 11.6484 7.53906 12.7031 8.67188 12.7031ZM16.2891 12.7031C17.4609 12.7031 18.3594 11.6484 18.3594 10.3984C18.3984 9.10938 17.4609 8.09375 16.2891 8.09375C15.1562 8.09375 14.2578 9.10938 14.2578 10.3984C14.2578 11.6484 15.1562 12.7031 16.2891 12.7031Z" fill="white" fill-opacity="0.92"/>
</svg>
