<?xml version="1.0" encoding="UTF-8"?>
<svg id="Layer_1" xmlns="http://www.w3.org/2000/svg" version="1.1" viewBox="0 0 252 25">
  <!-- Generator: Adobe Illustrator 29.2.1, SVG Export Plug-In . SVG Version: 2.1.0 Build 116)  -->
  <defs>
    <style>
      .st0 {
        fill: #fff;
      }
    </style>
  </defs>
  <path class="st0" d="M38.5,20l-4.3-5.1h3.8l3.5,4.2v.9h-3ZM27.2,20V5.6h11.5c.5,0,1,.1,1.4.4.4.3.8.6,1.1,1,.3.4.4.9.4,1.4v3.8c0,.5-.1,1-.4,1.4-.3.4-.6.8-1.1,1-.4.3-.9.4-1.4.4h-8.6v4.8h-2.9ZM30.2,12.3h8.4s0,0,0,0c0,0,0,0,0,0v-3.5s0,0,0,0c0,0,0,0,0,0h-8.4s0,0-.1,0c0,0,0,0,0,0v3.5s0,0,0,0c0,0,0,0,.1,0ZM43.8,20v-11.5c0-.5.1-1,.4-1.4.3-.4.6-.8,1-1,.4-.3.9-.4,1.5-.4h8.6c.5,0,1,.1,1.4.4.4.3.8.6,1.1,1,.3.4.4.9.4,1.4v11.5h-2.9v-4.7h-8.6v4.7h-2.9ZM46.6,12.4h8.6v-3.8s0,0,0,0c0,0,0,0,0,0h-8.4s0,0-.1,0c0,0,0,0,0,0v3.8ZM60.4,20V5.6h3.1l8.4,10V5.6h2.9v14.4h-3.1l-8.5-10.1v10.1h-2.9ZM77.1,20V5.6h2.9v5.7h3.1l4.8-5.7h3.1v.9l-5.3,6.3,5.3,6.3v.9h-3.1l-4.8-5.7h-3.1v5.7h-2.9ZM93.1,20V5.6h13.3v2.9h-10.4v2.8h8.3v2.9h-8.3v2.8h10.4v2.9h-13.3ZM108.4,20V5.6h11.5c.5,0,1,.1,1.4.4.4.3.8.6,1.1,1,.3.4.4.9.4,1.4v8.6c0,.5-.1,1-.4,1.5-.3.4-.6.8-1.1,1-.4.3-.9.4-1.4.4h-11.5ZM111.3,17.1h8.4s0,0,0,0c0,0,0,0,0-.1v-8.4s0,0,0,0c0,0,0,0,0,0h-8.4s0,0,0,0c0,0,0,0,0,0v8.4s0,0,0,.1c0,0,0,0,0,0ZM131.4,20V5.6h11c.5,0,1,.1,1.4.4.4.3.8.6,1.1,1,.3.4.4.9.4,1.4v2.8c0,.2,0,.3,0,.5,0,.1,0,.3-.1.4.2.3.4.6.5.9.1.3.2.6.2,1v3c0,.5-.1,1-.4,1.5-.3.4-.6.8-1.1,1-.4.3-.9.4-1.4.4h-11.5ZM134.4,17.1h8.4s0,0,0,0c0,0,0,0,0-.1v-2.7s0,0,0,0c0,0,0,0,0,0h-8.4s0,0-.1,0c0,0,0,0,0,0v2.7s0,0,0,.1c0,0,0,0,.1,0ZM134.4,11.2h7.8s0,0,0,0c0,0,0,0,0,0v-2.5s0,0,0,0c0,0,0,0,0,0h-7.8s0,0-.1,0c0,0,0,0,0,0v2.5s0,0,0,0c0,0,0,0,.1,0ZM148,20V5.6h13.3v2.9h-10.4v2.8h8.3v2.9h-8.3v2.8h10.4v2.9h-13.3ZM163.3,20V5.6h11.5c.5,0,1,.1,1.4.4.4.3.8.6,1.1,1,.3.4.4.9.4,1.4v8.6c0,.5-.1,1-.4,1.5-.3.4-.6.8-1.1,1-.4.3-.9.4-1.4.4h-11.5ZM166.3,17.1h8.4s0,0,0,0c0,0,0,0,0-.1v-8.4s0,0,0,0c0,0,0,0,0,0h-8.4s0,0,0,0c0,0,0,0,0,0v8.4s0,0,0,.1c0,0,0,0,0,0ZM184.3,20l-5.2-14.4h3.1l3.3,9,3.3-9h2.7l3.3,9,3.3-9h3.1l-5.2,14.4h-2.2l-3.6-9.7-3.5,9.7h-2.2ZM202.1,20v-11.5c0-.5.1-1,.4-1.4.3-.4.6-.8,1-1,.4-.3.9-.4,1.5-.4h8.6c.5,0,1,.1,1.4.4.4.3.8.6,1.1,1,.3.4.4.9.4,1.4v11.5h-2.9v-4.7h-8.6v4.7h-2.9ZM205,12.4h8.6v-3.8s0,0,0,0c0,0,0,0,0,0h-8.4s0,0-.1,0c0,0,0,0,0,0v3.8ZM230.1,20l-4.3-5.1h3.8l3.5,4.2v.9h-3ZM218.8,20V5.6h11.5c.5,0,1,.1,1.4.4.4.3.8.6,1.1,1,.3.4.4.9.4,1.4v3.8c0,.5-.1,1-.4,1.4-.3.4-.6.8-1.1,1-.4.3-.9.4-1.4.4h-8.6v4.8h-2.9ZM221.8,12.3h8.4s0,0,0,0c0,0,0,0,0,0v-3.5s0,0,0,0c0,0,0,0,0,0h-8.4s0,0-.1,0c0,0,0,0,0,0v3.5s0,0,0,0c0,0,0,0,.1,0ZM238.1,20c-.5,0-1-.1-1.4-.4-.4-.3-.8-.6-1-1-.3-.4-.4-.9-.4-1.5v-1.2h2.9v1.1s0,0,0,.1c0,0,0,0,0,0h8.4s0,0,0,0c0,0,0,0,0-.1v-2.6s0,0,0,0c0,0,0,0,0,0h-8.5c-.5,0-1-.1-1.4-.4-.4-.3-.8-.6-1-1.1-.3-.4-.4-.9-.4-1.4v-2.9c0-.5.1-1,.4-1.4.3-.4.6-.8,1-1,.4-.3.9-.4,1.4-.4h8.7c.5,0,1,.1,1.4.4.4.3.8.6,1.1,1,.3.4.4.9.4,1.4v1.2h-2.9v-1.1s0,0,0,0c0,0,0,0,0,0h-8.4s0,0,0,0c0,0,0,0,0,0v2.6s0,0,0,0c0,0,0,0,0,0h8.5c.5,0,1,.1,1.4.4.4.3.8.6,1.1,1,.3.4.4.9.4,1.4v2.9c0,.5-.1,1-.4,1.5-.3.4-.6.8-1.1,1-.4.3-.9.4-1.4.4h-8.7Z"/>
  <g>
    <path class="st0" d="M19.6,5.9c0,.5,0,.9,0,1.4,0,1.5.2,3.4.1,4.9s0,.1,0,.2c0,0-.3,0-.4,0-.7.1-1.6.3-2.2.3s-1.1,0-1.6,0c.4,2.4,2.4,3.9,4.3,5.1l-2.1,1.5h-.1c-2-1.2-3.9-2.9-4.7-5.1s-.6-2.5-.5-3.7h4.7s0-1.8,0-1.8h-5.8c0,.7,0,1.4.1,2.1.2,1.9.5,4.2,1.3,6s.5.9.5.9c0,.2-1.8,1.7-2.1,2,0,0-.1-.1-.2-.2-.4-.6-.7-1.2-1-1.8-.3.7-.7,1.4-1.1,2l-2.1-2c0,0,.3-.5.4-.6.5-.9.8-2,1-3.1.4-1.7.6-3.5.6-5.3H3s0,1.7,0,1.7h0s4.7,0,4.7,0c.1,1.4-.2,3-.8,4.3-.9,2-2.6,3.5-4.5,4.6l-2.2-1.5c.3-.2.7-.4,1-.7,1.1-.7,2.2-1.8,2.8-3s.4-1,.5-1.4,0,0,0,0c-.5,0-1.1,0-1.6,0l-2.6-.4v-3.8s.1-2.7.1-2.7c.5,0,1.1.2,1.6.2,3.8.4,7.8.4,11.6.3s4-.2,6-.5Z"/>
    <path class="st0" d="M20.2,11.5v.2c2.4,6.1-1.1,11.9-7.9,11.2s-6.1-2.1-8.3-4.3l.4-.3c2.1,2.1,4.9,3.8,7.9,4.1,5.4.6,9-3.2,8.1-8.5s-.2-1.3-.2-2.1,0-.2,0-.3Z"/>
    <path class="st0" d="M16.1,5.9h-.8c-1.5-1.2-3.4-2.2-5.3-2.6-3-.6-6.2,0-8,2.5l-.4-.3c1.1-1.5,2.7-2.5,4.5-2.8,3.5-.7,7.3.8,9.9,3.1Z"/>
    <path class="st0" d="M1.1,12.8c.3,1,.7,1.9,1.2,2.8,0,.1-.3.3-.3.4-.4-.7-.8-1.4-1-2.2s-.3-1-.3-1h.5Z"/>
  </g>
</svg>